<svg xmlns="http://www.w3.org/2000/svg" viewBox="0 0 512 512">
  <defs>
    <radialGradient id="lime-grad" cx="30%" cy="30%" r="70%" fx="30%" fy="30%">
      <stop offset="0%" stop-color="#bef264" />
      <stop offset="100%" stop-color="#4d7c0f" />
    </radialGradient>
    <filter id="shadow" x="-10%" y="-10%" width="120%" height="120%">
      <feDropShadow dx="0" dy="10" stdDeviation="15" flood-opacity="0.3" />
    </filter>
  </defs>
  
  <circle cx="256" cy="256" r="230" fill="url(#lime-grad)" filter="url(#shadow)" stroke="#3f6212" stroke-width="12" />
  
  <circle cx="256" cy="256" r="190" fill="#a3e635" />
  
  <g fill="#d9f99d">
    <path d="M256 76 A 180 180 0 0 1 383 129 L 256 256 Z" />
    <path d="M436 256 A 180 180 0 0 1 383 383 L 256 256 Z" />
    <path d="M256 436 A 180 180 0 0 1 129 383 L 256 256 Z" />
    <path d="M76 256 A 180 180 0 0 1 129 129 L 256 256 Z" />
  </g>
  
  <circle cx="256" cy="256" r="30" fill="#fef08a" />
</svg>
